<svg xmlns="http://www.w3.org/2000/svg" version="1.1" xmlns:xlink="http://www.w3.org/1999/xlink" xmlns:svgjs="http://svgjs.dev/svgjs" width="1000" height="1000"><style>
    #light-icon {
      display: inline;
    }
    #dark-icon {
      display: none;
    }

    @media (prefers-color-scheme: dark) {
      #light-icon {
        display: none;
      }
      #dark-icon {
        display: inline;
      }
    }
  </style><g id="light-icon"><svg xmlns="http://www.w3.org/2000/svg" version="1.1" xmlns:xlink="http://www.w3.org/1999/xlink" xmlns:svgjs="http://svgjs.dev/svgjs" width="1000" height="1000"><g><g transform="matrix(3.7408349543618136,0,0,3.7408349543618136,168.97351488852314,0)"><svg xmlns="http://www.w3.org/2000/svg" version="1.1" xmlns:xlink="http://www.w3.org/1999/xlink" xmlns:svgjs="http://svgjs.dev/svgjs" width="176.98" height="267.32"><svg id="b" data-name="Layer 2" xmlns="http://www.w3.org/2000/svg" viewBox="0 0 176.98 267.32">
  <defs>
    <style>
      .d {
        fill: #fff;
      }
    </style>
  </defs>
  <g id="c" data-name="Layer 1">
    <g>
      <path d="M138.62,245.83l-.83,14.62c-12.22,4.78-25.54,6.16-38.71,6.86,0,0-38.42.59-59.25-6.56,0,0,.14-2.62.27-8.29.08-3.47-.07-6.95-.46-10.39L23.33,98.55c-30.2-8.83-31.43-46.17-1.65-56.82,2.01-12.84,14.53-22.37,27.3-22.34C56.05,8.95,67.57.91,80.42.09c9.84-.63,20.05,2.24,28.13,7.72,25.59-11.62,55.58,5.03,54.89,33.92,18.98,16.05,18.21,40.54-3.59,53.78-2.07,1.26-6.15,2.38-8.55,6.34,0,0-13.98,120.06-12.69,143.97Z"></path>
      <path class="d" d="M47.33,190.94c2.25,17.5,2.34,35.49,3.01,53.21.01.37.16.73.42.98,11.02,10.49,65.78,8.96,75.45,3.18,1.36-.81,3.28-6.11,4.69-3.03,5.57,12.14-54.83,8.59-62.06,8-1.47-.12-19.38-3.38-17.65-1.65,11.64,4.2,24.08,6.29,36.41,7.72v1.1l-39.78-2.65c-.85-.06-1.47-.83-1.34-1.68,3.24-21.49,1.27-43.5.86-65.17Z"></path>
      <path class="d" d="M130.07,75.66c.58-.16,1.11.09,1.62.37s.82.86.75,1.45c-6.16,53.34-7.34,107.51-16.71,160.36,7.68-53.02,8.87-106.81,12.92-160.22.02-.33.16-.64.38-.88.41-.43.83-1.01,1.04-1.07Z"></path>
      <path class="d" d="M138.34,76.76c.99-.3,2.86.34,3.72,1.23.3.31.41.76.35,1.19l-11.23,73.15-.25-.25c-.35-.35-.5-.85-.4-1.33,2.66-12.25,5.14-69.25,6.44-72.61.05-.13,1.29-1.35,1.38-1.38Z"></path>
      <path class="d" d="M146.07,78.42c2.72-.81,2.5,2.46,2.48,4.14-.04,4.98-7.54,45.04-9.1,55.99.98-10.31,4.31-54.98,5.24-58.19.07-.24,1.12-1.85,1.38-1.93Z"></path>
      <path class="d" d="M49.53,158.4c2.43,16.74,4.32,34.51,5.24,51.58.86,15.97.31,37.9-1.65,22.62-1.4-10.89-.05-54.9-3.59-74.19Z"></path>
      <path class="d" d="M26.92,75.11c.57.04,1.17.33,1.38.83.22.53,1.11,6.09,1.82,11.6.23,1.78-2.34,2.33-2.85.61-1.5-5.02-2.86-9.98-2.82-10.55.09-1.24,2.31-2.49,2.48-2.48Z"></path>
      <path class="d" d="M31.33,74c2.15-.52,3.25,4.93,3.89,10.91.19,1.79-2.39,2.27-2.87.54-1.31-4.73-2.42-8.98-2.4-9.52.03-1.08.33-1.68,1.38-1.93Z"></path>
      <path class="d" d="M155.81,45.88c-1.35-.54-1.17-2.48.25-2.78,2.01-.43,2.37-.99,1.86-6.88-2.19-25.34-40.48-37.09-54.15-14.37-.79,1.31-2.86.61-2.7-.91.48-4.49,5.24-6,1.41-9.26-5.04-4.3-19.59-5.82-25.93-4.96-6.4.87-15.37,6.38-19.47,11.99-.48.66-.34,1.58.32,2.06,1.12.81,3.02,1.83,4.83,3.02,1.52,1,.26,3.28-1.42,2.55-11.86-5.12-29.35,2.35-33.26,15.08-.26.85.28,1.74,1.16,1.88,1.34.21,3.38.55,5.54,1.71,1.43.77.78,2.96-.84,2.75-26.98-3.42-39.03,32.24-12.13,43.07,1.03.42,2.13-.46,1.98-1.56l-1.5-11.37c-.07-.53.15-1.06.58-1.37,14.46-10.59,16.95.62,26.06,6.86,20.21,13.87,30.83-1.73,48.24-10.33.2-.1.42-.15.64-.16,18.24-.43,36.5.5,54.25,4.7.66.16,1.13.75,1.13,1.43v10.61c0,1.01,1.01,1.73,1.97,1.38,22-7.96,21.57-36.91,1.16-45.13ZM101.94,39.8c-1.29.4-3.21,1.51-5.03,2.82-1.19.85-2.75-.35-2.22-1.71.34-.88-.24-1.84-1.18-1.98-11.95-1.79-23.9,2.54-32.81,10.38-1.31,1.15-3.18-.61-2.12-2,5.28-6.95,15.24-12.74,21.86-13.58,13.12-1.67,15.67,5.34,27.69,1.79.28-.08.6-.08.88.01,15.07,4.94,1.6,1.6-7.06,4.27ZM148.55,48.35c-12.17-14.99-29.8-6.25-19.87-11.7.18-.1.4-.17.6-.19,9.63-.82,18.19,4.16,22.99,12.21.09.15.16.33.19.5,2.86,15.13.46,4.57-3.91-.82Z"></path>
    </g>
  </g>
</svg></svg></g></g></svg></g><g id="dark-icon"><svg xmlns="http://www.w3.org/2000/svg" version="1.1" xmlns:xlink="http://www.w3.org/1999/xlink" xmlns:svgjs="http://svgjs.dev/svgjs" width="1000" height="1000"><g clip-path="url(#SvgjsClipPath1088)"><rect width="1000" height="1000" fill="#ffffff"></rect><g transform="matrix(3.3667514589256324,0,0,3.3667514589256324,202.0761633996708,50)"><svg xmlns="http://www.w3.org/2000/svg" version="1.1" xmlns:xlink="http://www.w3.org/1999/xlink" xmlns:svgjs="http://svgjs.dev/svgjs" width="176.98" height="267.32"><svg id="b" data-name="Layer 2" xmlns="http://www.w3.org/2000/svg" viewBox="0 0 176.98 267.32">
  <defs>
    <style>
      .d {
        fill: #fff;
      }
    </style>
  <clipPath id="SvgjsClipPath1088"><rect width="1000" height="1000" x="0" y="0" rx="250" ry="250"></rect></clipPath></defs>
  <g id="c" data-name="Layer 1">
    <g>
      <path d="M138.62,245.83l-.83,14.62c-12.22,4.78-25.54,6.16-38.71,6.86,0,0-38.42.59-59.25-6.56,0,0,.14-2.62.27-8.29.08-3.47-.07-6.95-.46-10.39L23.33,98.55c-30.2-8.83-31.43-46.17-1.65-56.82,2.01-12.84,14.53-22.37,27.3-22.34C56.05,8.95,67.57.91,80.42.09c9.84-.63,20.05,2.24,28.13,7.72,25.59-11.62,55.58,5.03,54.89,33.92,18.98,16.05,18.21,40.54-3.59,53.78-2.07,1.26-6.15,2.38-8.55,6.34,0,0-13.98,120.06-12.69,143.97Z"></path>
      <path class="d" d="M47.33,190.94c2.25,17.5,2.34,35.49,3.01,53.21.01.37.16.73.42.98,11.02,10.49,65.78,8.96,75.45,3.18,1.36-.81,3.28-6.11,4.69-3.03,5.57,12.14-54.83,8.59-62.06,8-1.47-.12-19.38-3.38-17.65-1.65,11.64,4.2,24.08,6.29,36.41,7.72v1.1l-39.78-2.65c-.85-.06-1.47-.83-1.34-1.68,3.24-21.49,1.27-43.5.86-65.17Z"></path>
      <path class="d" d="M130.07,75.66c.58-.16,1.11.09,1.62.37s.82.86.75,1.45c-6.16,53.34-7.34,107.51-16.71,160.36,7.68-53.02,8.87-106.81,12.92-160.22.02-.33.16-.64.38-.88.41-.43.83-1.01,1.04-1.07Z"></path>
      <path class="d" d="M138.34,76.76c.99-.3,2.86.34,3.72,1.23.3.31.41.76.35,1.19l-11.23,73.15-.25-.25c-.35-.35-.5-.85-.4-1.33,2.66-12.25,5.14-69.25,6.44-72.61.05-.13,1.29-1.35,1.38-1.38Z"></path>
      <path class="d" d="M146.07,78.42c2.72-.81,2.5,2.46,2.48,4.14-.04,4.98-7.54,45.04-9.1,55.99.98-10.31,4.31-54.98,5.24-58.19.07-.24,1.12-1.85,1.38-1.93Z"></path>
      <path class="d" d="M49.53,158.4c2.43,16.74,4.32,34.51,5.24,51.58.86,15.97.31,37.9-1.65,22.62-1.4-10.89-.05-54.9-3.59-74.19Z"></path>
      <path class="d" d="M26.92,75.11c.57.04,1.17.33,1.38.83.22.53,1.11,6.09,1.82,11.6.23,1.78-2.34,2.33-2.85.61-1.5-5.02-2.86-9.98-2.82-10.55.09-1.24,2.31-2.49,2.48-2.48Z"></path>
      <path class="d" d="M31.33,74c2.15-.52,3.25,4.93,3.89,10.91.19,1.79-2.39,2.27-2.87.54-1.31-4.73-2.42-8.98-2.4-9.52.03-1.08.33-1.68,1.38-1.93Z"></path>
      <path class="d" d="M155.81,45.88c-1.35-.54-1.17-2.48.25-2.78,2.01-.43,2.37-.99,1.86-6.88-2.19-25.34-40.48-37.09-54.15-14.37-.79,1.31-2.86.61-2.7-.91.48-4.49,5.24-6,1.41-9.26-5.04-4.3-19.59-5.82-25.93-4.96-6.4.87-15.37,6.38-19.47,11.99-.48.66-.34,1.58.32,2.06,1.12.81,3.02,1.83,4.83,3.02,1.52,1,.26,3.28-1.42,2.55-11.86-5.12-29.35,2.35-33.26,15.08-.26.85.28,1.74,1.16,1.88,1.34.21,3.38.55,5.54,1.71,1.43.77.78,2.96-.84,2.75-26.98-3.42-39.03,32.24-12.13,43.07,1.03.42,2.13-.46,1.98-1.56l-1.5-11.37c-.07-.53.15-1.06.58-1.37,14.46-10.59,16.95.62,26.06,6.86,20.21,13.87,30.83-1.73,48.24-10.33.2-.1.42-.15.64-.16,18.24-.43,36.5.5,54.25,4.7.66.16,1.13.75,1.13,1.43v10.61c0,1.01,1.01,1.73,1.97,1.38,22-7.96,21.57-36.91,1.16-45.13ZM101.94,39.8c-1.29.4-3.21,1.51-5.03,2.82-1.19.85-2.75-.35-2.22-1.71.34-.88-.24-1.84-1.18-1.98-11.95-1.79-23.9,2.54-32.81,10.38-1.31,1.15-3.18-.61-2.12-2,5.28-6.95,15.24-12.74,21.86-13.58,13.12-1.67,15.67,5.34,27.69,1.79.28-.08.6-.08.88.01,15.07,4.94,1.6,1.6-7.06,4.27ZM148.55,48.35c-12.17-14.99-29.8-6.25-19.87-11.7.18-.1.4-.17.6-.19,9.63-.82,18.19,4.16,22.99,12.21.09.15.16.33.19.5,2.86,15.13.46,4.57-3.91-.82Z"></path>
    </g>
  </g>
</svg></svg></g></g></svg></g></svg>